<svg id="Layer_1" data-name="Layer 1" xmlns="http://www.w3.org/2000/svg" viewBox="0 0 1920 925.05364"><defs><style>.cls-1{fill:lime;}.cls-2{font-size:455.2605px;fill:#fff;font-family:MyriadPro-Regular, Myriad Pro;}</style></defs><title>Kjøp nå knapp</title><rect x="72" y="75.05358" width="1790" height="780"/><path class="cls-1" d="M1818.45044,116.94642A21.57417,21.57417,0,0,1,1840,138.496V860.4505a21.57419,21.57419,0,0,1-21.54956,21.54956H101.54955A21.57421,21.57421,0,0,1,80,860.4505V138.496a21.57419,21.57419,0,0,1,21.54955-21.54954H1818.45044m0-80H101.54955A101.54947,101.54947,0,0,0,0,138.496V860.4505A101.54948,101.54948,0,0,0,101.54955,962.00006H1818.45044A101.54946,101.54946,0,0,0,1920,860.4505V138.496A101.54946,101.54946,0,0,0,1818.45044,36.94642Z" transform="translate(0 -36.94642)"/><text class="cls-2" transform="translate(254.80811 575.58385)">Kjøp nå</text></svg>